<svg xmlns="http://www.w3.org/2000/svg" xmlns:xlink="http://www.w3.org/1999/xlink" width="500" zoomAndPan="magnify" viewBox="0 0 375 374.999991" height="500" preserveAspectRatio="xMidYMid meet" version="1.0"><defs><g/></defs><g fill="#940000" fill-opacity="1"><g transform="translate(55.488282, 358.279839)"><g><path d="M 172.042969 0 C 196.621094 0 219.902344 -10.089844 237.238281 -27.421875 C 254.054688 -44.238281 264.144531 -67.523438 264.144531 -92.617188 C 264.144531 -110.210938 259.484375 -126.507812 250.429688 -141.515625 C 241.375 -156.261719 229.476562 -167.644531 214.210938 -175.921875 C 239.824219 -191.703125 255.605469 -218.09375 255.605469 -249.136719 C 255.605469 -273.714844 246.292969 -297 229.992188 -313.554688 C 213.695312 -330.113281 191.445312 -339.945312 167.644531 -339.945312 L 35.441406 -339.945312 C 28.457031 -339.945312 24.058594 -334.769531 24.058594 -328.300781 L 24.058594 -9.570312 C 25.09375 -4.140625 29.492188 0 35.441406 0 Z M 47.601562 -186.53125 L 47.601562 -316.402344 L 167.125 -316.402344 C 184.71875 -315.625 201.015625 -308.382812 213.175781 -296.738281 C 225.335938 -285.097656 232.320312 -267.765625 232.320312 -249.136719 C 232.320312 -232.320312 225.59375 -216.796875 214.210938 -205.414062 C 202.828125 -194.03125 187.046875 -187.304688 170.230469 -186.53125 Z M 47.601562 -23.542969 L 47.601562 -162.988281 L 173.851562 -162.988281 C 191.445312 -162.210938 208.003906 -154.449219 220.160156 -141.253906 C 232.320312 -128.0625 239.046875 -110.988281 239.046875 -92.617188 C 239.046875 -74.25 232.0625 -56.917969 219.644531 -44.238281 C 206.96875 -31.046875 190.410156 -23.542969 172.042969 -23.542969 Z M 47.601562 -23.542969 "/></g></g></g><g fill="#940000" fill-opacity="1"><g transform="translate(59.498189, 269.400733)"><g><path d="M 128.542969 0 C 134.890625 0 139.917969 -5.027344 139.917969 -11.109375 C 139.917969 -15.871094 134.890625 -21.160156 128.542969 -21.160156 L 43.640625 -21.160156 L 43.640625 -74.851562 L 109.238281 -74.851562 C 115.585938 -74.851562 120.082031 -79.878906 120.082031 -85.960938 C 120.082031 -91.515625 115.585938 -96.011719 109.238281 -96.011719 L 43.640625 -96.011719 L 43.640625 -148.117188 L 128.542969 -148.117188 C 134.890625 -148.117188 139.917969 -152.878906 139.917969 -157.902344 C 139.917969 -164.25 134.890625 -169.277344 128.542969 -169.277344 L 32.269531 -169.277344 C 25.65625 -169.277344 20.628906 -164.25 20.628906 -157.902344 L 20.628906 -11.636719 C 20.628906 -5.289062 25.65625 -0.527344 31.476562 0 Z M 128.542969 0 "/></g></g></g></svg>